<?xml version="1.0" encoding="UTF-8"?>
<svg id="Camada_2" data-name="Camada 2" xmlns="http://www.w3.org/2000/svg" viewBox="0 0 717.41 385.5">
  <g id="Camada_1-2" data-name="Camada 1-2">
    <g>
      <g>
        <g>
          <path d="M643.95,228.3c-30.96,0-56.69-13.99-67.16-36.52-8.94-19.28-9.35-75.7-.7-95.84,10.08-23.45,36.73-38.59,67.87-38.59,33.05,0,60,16.56,68.65,42.18,2.53,7.47,3.08,14.43,3.61,21.15.11,1.35.22,2.72.34,4.11.43,3.06-.58,6.21-2.84,8.46-1.91,1.9-4.47,2.92-7.08,2.92-.12,0-.24,0-.37,0h-32.01c-5.25,0-9.61-4.06-9.98-9.3-.92-13.17-4.15-16.6-10.19-18.62-3.35-1.13-7.07-1.72-10.77-1.72-4.54,0-15.45.98-18.61,10.05-2.88,8.26-3.07,39.19-.93,48.99.74,3.37,3,13.65,19.07,13.65,2.55,0,5.26-.28,8.04-.83,8.14-1.62,12.44-4.98,13.38-18.86.35-5.25,4.72-9.33,9.98-9.33h32.39c2.79,0,5.46,1.17,7.35,3.22s2.84,4.8,2.62,7.58l-.11,1.35c-.72,9.03-1.46,18.37-5.46,27.98-9.62,23.07-35.96,37.97-67.12,37.97h0Z" style="fill: #fff;"/>
          <path d="M706.68,126.17h-32.39c-.88-12.65-4-23.06-16.99-27.41-14.85-5-36.16-2.23-42,14.52-3.65,10.49-3.65,43.45-1.25,54.42,4.17,18.97,21.37,23.96,38.83,20.49,15.42-3.07,20.41-13.19,21.41-27.99h32.39c-.73,9.12-1.27,17.72-4.83,26.29-17.62,42.26-96.88,42.21-115.98,1.08-7.92-17.07-7.99-70.45-.58-87.67,19.04-44.26,102.25-43.43,117.87,2.83,2.65,7.84,2.75,15.3,3.52,23.46l.02-.02Z" style="fill: #293438;"/>
          <g>
            <path d="M487.9,228.1c-34.99,0-61.57-15.98-71.1-42.75-6.07-17.04-5.43-58.42-1.81-75.38,7.79-36.33,42.25-52.59,72.94-52.59,33.5,0,60.99,17.98,70.05,45.82.03.1,3.43,10.7,3.43,15.1v35.26c0,2.97-1.29,5.63-3.34,7.46,2,1.78,3.29,4.35,3.36,7.24.63,26.53-16.48,47.95-44.66,55.91-9.1,2.58-19.08,3.94-28.86,3.94ZM465.08,167.73c.63,2.33,4.8,7.83,7.05,9.26,3.74,2.37,10.13,3.84,16.68,3.84,7.84,0,14.74-2.11,18-5.5,1.65-1.71,2.33-3.7,2.22-6.43-.08-1.88.38-3.73,1.3-5.34h-45.25v4.17ZM509.61,121.15c-.6-3.52-1.89-7-4.38-9.72-4.65-5.07-12.2-6.14-17.71-6.14-1.03,0-2.1.04-3.18.11-6.48.43-11.47,2.67-14.83,6.64-2.06,2.43-3.46,5.54-4.16,9.11h44.26Z" style="fill: #fff;"/>
            <path d="M551.4,153.56h-96.33v14.52c0,5.27,7.2,14.5,11.7,17.35,15.37,9.74,53.23,7.54,52.25-16.94h32.39c.57,23.69-15.54,39.88-37.38,46.05-31.56,8.94-75.49,2.12-87.82-32.54-5.3-14.87-4.8-54.25-1.45-69.94,12.17-56.77,105.96-60.27,123.7-5.77.75,2.3,2.93,10.1,2.93,12v35.26ZM519.84,131.15c2.12-24.36-12.27-37.31-36.16-35.73-20.01,1.33-30.58,16.3-28.61,35.73h64.77Z" style="fill: #293438;"/>
            <path d="M395,225.92c-25.11,0-52.72-3.34-67.13-28.09-3.41-5.85-8.16-18.74-8.16-26.44v-63.44h-12.42c-5.52,0-10-4.48-10-10v-28.21c0-5.52,4.48-10,10-10h12.42v-29.01c0-5.52,4.48-10,10-10h34.06c5.51.02,9.98,4.49,9.98,10,0,.14,0,.27,0,.41v28.58h30.69c5.52,0,10,4.48,10,10v28.21c0,5.52-4.48,10-10,10h-30.69v57.19c.17,1.26.84,4.73,1.07,5.65.56,2.17,2.21,3.93,4.33,4.63.94.31,4.2,1.12,5.46,1.34h20.67c5.52,0,10,4.48,10,10v29.04c0,5.44-4.35,9.89-9.79,10-3.32.07-6.87.13-10.47.13Z" style="fill: #fff;"/>
            <path d="M363.73,30.74v38.99h40.69v28.21h-39.44c-.08,0-1.25,1.15-1.25,1.25v66.39c0,.95,1.05,6.4,1.4,7.74,1.4,5.43,5.53,9.82,10.84,11.59,1.55.52,6.89,1.85,8.12,1.85h21.17v29.04c-24.32.5-54.9.8-68.75-22.99-2.83-4.87-6.8-15.95-6.8-21.41v-73.44h-22.42v-28.21h22.42V30.74h34.04-.02Z" style="fill: #293438;"/>
          </g>
        </g>
        <g>
          <path d="M11.25,225.79c-5.57,0-11.25-5.68-11.25-11.25V10C0,4.48,4.48,0,10,0h133.69c5.52,0,10,4.48,10,10v32.36c0,5.52-4.48,10-10,10H57.36v35.6h78.02c5.52,0,10,4.48,10,10v32.36c0,5.52-4.48,10-10,10H57.36v75.47c0,5.52-4.48,10-10,10H11.25Z" style="fill: #fff;"/>
          <path d="M143.69,10v32.36H47.36v55.6h88.02v32.36H47.36v85.47H11.25c-.08,0-1.25-1.15-1.25-1.25V10h133.69Z" style="fill: #293438;"/>
          <path d="M203.44,227.51c-16.99,0-31.69-5.82-41.4-16.39-9.68-10.54-14.03-25.16-12.56-42.28,1.4-16.34,10.91-30.19,25.57-38.5h-12.25c-5.15,0-9.46-3.91-9.95-9.04-1.52-15.76,3.04-30,13.19-41.17,13.31-14.65,36.04-23.4,60.81-23.4,21.5,0,41.03,6.57,53.57,18.03,8.78,8.01,18.59,26.19,18.59,38.53v102.48c0,5.52-4.48,10.02-10,10.02h-31.98c-5.2,0-10.49-4.95-11.18-10.13-8.35,4.4-17.12,8.56-27.24,10.42-5.15.95-10.26,1.43-15.18,1.43ZM211.55,165.22c-1.6.23-5.78,1.91-7.02,2.84-1.62,1.35-2.48,4.5-1.98,7.45.19,1.1.85,3.73,2.99,4.54,1.55.58,3.21.87,5.08.87,8.49,0,19.16-5.84,28.58-11,2.25-1.23,4.44-2.43,6.58-3.54v-1.16h-34.23ZM226.01,104.81c-7.73,0-14.66,2.29-18.11,5.98-2.13,2.28-3,5.1-2.74,8.87.05.72.02,1.43-.08,2.13,6.9-.68,13.43-.8,18.84-.8,4.09,0,8.21.08,12.2.15,3.47.06,7.04.13,10.52.14v-3.02c0-4.23-5.06-10.33-9.84-11.87-3.23-1.04-6.96-1.59-10.78-1.59Z" style="fill: #fff;"/>
          <path d="M289.01,215.79h-31.98c-.08,0-1.25-1.15-1.25-1.25v-15.35c-12.75,6.15-24.74,14.44-38.98,17.05-33.46,6.17-60.47-10.3-57.37-46.55,1.72-20.11,17.82-32.78,36.56-36.49,19.66-3.88,40.64-1.3,60.63-2.07v-12.87c0-9.04-8.32-18.67-16.79-21.39-17.74-5.7-46.3-.13-44.66,23.47h-32.39c-5.33-55.33,78.91-67.4,110.88-38.19,6.89,6.29,15.34,21.84,15.34,31.14v102.5ZM255.79,155.22h-44.43c-3.27,0-10.52,2.92-13.15,5.1-8.8,7.3-7.6,24.81,3.83,29.09,17.42,6.55,38.54-10.05,53.75-16.79v-17.42.02Z" style="fill: #293438;"/>
        </g>
      </g>
      <path d="M279.58,384.39c-2.48,0-8.23-.01-11.99-4.56-.81-.98-1.43-2.11-1.82-3.32l-17.84-55.62c-.98-3.04-.44-6.37,1.44-8.95,1.88-2.58,4.88-4.11,8.08-4.11h11.62c2.7,0,5.28,1.09,7.17,3.03,1.21,1.25,2.07,2.78,2.5,4.43l3.44,11.53,3.49-11.14c.39-1.23,1-2.37,1.82-3.37,3.78-4.58,9.59-4.58,11.78-4.58,1.28,0,2.55.07,3.66.13.78.04,1.59.08,2.1.08h.09c.44-.06.88-.09,1.31-.09,2.89,0,5.68,1.26,7.6,3.5,2.28,2.67,3,6.33,1.89,9.66l-18.77,56.47c-1.38,4.15-5.26,6.85-9.48,6.85-.54,0-1.08-.04-1.63-.13-.07,0-.23,0-.24,0-.62,0-1.49.04-2.41.08-1.17.05-2.49.12-3.79.12h-.02Z" style="fill: #fff;"/>
      <path d="M269.07,317.85l12.87,43.16,13.27-42.35c1.48-1.8,8.64-.38,11.22-.82l-18.77,56.47c-2.73-.57-10.85.97-12.37-.87l-17.84-55.62h11.62v.02Z" style="fill: #b20303;"/>
      <path d="M639.88,317.32c-12.27,0-21.46-7.52-23.4-19.16-.88-5.25-1.43-21.06,2.45-28.99,3.94-8.04,11.53-12.65,20.82-12.65,1.26,0,2.53.09,3.81.25v-6.13c0-5.52,4.48-10,10-10h9.17c5.5.03,9.96,4.49,9.96,10,0,.14,0,.28,0,.41v56.02c0,2.92-1.28,5.7-3.5,7.6-1.82,1.56-4.13,2.4-6.5,2.4-.35,0-.71-.02-1.07-.06-.07,0-.15,0-.23,0-.84,0-1.97.04-3.07.08-1.31.04-2.59.09-3.51.09h-.02c-1.17,0-3.45,0-5.77-1.18-3,.86-6.09,1.32-9.12,1.32Z" style="fill: #fff;"/>
      <path d="M662.67,250.65v56.43c-1.48-.23-8.82.33-9.14,0-.25-.25.18-3.23,0-4.15-9,6.39-24.94,7.04-27.19-6.42-.9-5.37-.77-18.17,1.57-22.94,4.95-10.1,18.02-7.95,25.64-2.18v-20.74h9.14-.02ZM653.36,294.46c.5-.85.4-13.7-.25-14.77-2.58-4.28-16.69-8.6-17.89.37-.63,4.75-1.25,17.5,4.17,19.19,2.83.88,12.84-2.83,13.97-4.78Z" style="fill: #b20303;"/>
      <path d="M376.19,317.07c-5.52,0-10-4.48-10-10v-56.42c0-5.52,4.48-10,10-10h36.54c5.52,0,10,4.48,10,10v8.29c0,3.82-2.14,7.14-5.29,8.82,1.74,1.8,2.81,4.25,2.81,6.95v8.3c0,5.52-4.48,10-10,10h-14.09v14.06c0,5.52-4.48,10-10,10h-9.97Z" style="fill: #fff;"/>
      <polygon points="412.73 250.65 412.73 258.94 386.16 258.94 386.16 274.71 410.25 274.71 410.25 283.01 386.16 283.01 386.16 307.07 376.19 307.07 376.19 250.65 412.73 250.65" style="fill: #b20303;"/>
      <path d="M319.75,385.11c-3.25,0-6.52-.68-9.71-2.03-7.17-3.02-11.88-10.03-12.3-18.3-.2-4.07.67-8.02,2.41-11.44-.53-.97-.9-2.04-1.08-3.15-1.06-6.43.59-12.61,4.66-17.4,4.98-5.87,13.45-9.38,22.67-9.38,10.23,0,18.94,4.24,23.31,11.34.83,1.34,4.11,8.21,4.11,12.57v26.97c0,5.52-4.48,10-10,10-.42,0-.83-.03-1.23-.07-.02,0-.05,0-.07,0-.84,0-1.97.04-3.07.08-1.31.04-2.59.09-3.52.09-1.21,0-3.64,0-6.07-1.33-2.98,1.14-6.29,2.05-10.12,2.05Z" style="fill: #fff;"/>
      <path d="M343.81,374.29c-1.48-.23-8.82.33-9.14,0-.25-.25.18-3.23,0-4.15-7.22,2.72-12.64,7.15-20.76,3.73-8.12-3.42-8.24-16.34-.58-20.51,1.2-.65,5.8-2.32,6.82-2.32h14.54c.62-7.52-4.45-11.3-11.69-9.6-5.67,1.33-4.97,6.42-5.87,7-1.07.7-6.4-.27-8.2.12-2.72-16.45,25.34-19.81,32.24-8.57.83,1.35,2.63,6.07,2.63,7.34v26.97-.02ZM334.67,357.68h-13.7c-3.78,0-7.72,9.7.82,10.04,4.22.17,15.37-4.27,12.89-10.04Z" style="fill: #b20303;"/>
      <path d="M530.71,317.5c-2.83,0-5.64-.48-8.35-1.43-7.34-2.57-12.51-9.22-13.49-17.35-.56-4.63.32-9.22,2.36-13.12-.71-1.21-1.17-2.56-1.32-3.98-.69-6.27,1.17-12.22,5.24-16.76,5-5.57,12.98-8.77,21.91-8.77s17.6,3.59,22.26,9.59c.66.85,5.43,8.29,5.43,13.6v27.79c0,5.52-4.48,10-10,10-.36,0-.72-.02-1.08-.06-.07,0-.15,0-.24,0-.84,0-1.97.04-3.07.08-1.31.04-2.59.09-3.51.09h-.02c-1.25,0-3.77,0-6.26-1.45-2.97,1.02-6.22,1.78-9.85,1.78Z" style="fill: #fff;"/>
      <path d="M554.72,307.07c-1.48-.23-8.82.33-9.14,0-.25-.25.18-3.23,0-4.15-6.6,2.6-12.59,6.29-19.92,3.72-8.42-2.95-9.3-15.62-2.08-20.32.68-.45,5.5-2.48,5.82-2.48h16.19c1.22-7.94-6.02-12.15-13.07-9.32-3.23,1.3-3.47,5.4-4.88,5.9-1.95.68-5.55-.23-7.79.12-1.73-15.79,23.96-18.52,31.56-8.72,1,1.28,3.33,6.19,3.33,7.47v27.79h-.02ZM545.58,290.48h-14.54c-3.45,0-5.95,9.99,1.65,9.99,1.72,0,12.27-4.37,12.74-5.13.6-.97-.1-3.52.13-4.85h.02Z" style="fill: #b20303;"/>
      <path d="M584.5,385.18c-11.77,0-21.63-5.54-25.73-14.47-3.87-8.37-3.52-25.25.7-33.43,4.34-8.42,13.8-13.65,24.71-13.65,12.28,0,22.5,6.53,26.04,16.63.05.14,3.49,11.62,1.02,19.47.49,1.62.62,3.34.38,5.1-1.63,11.98-12.78,20.34-27.12,20.34Z" style="fill: #fff;"/>
      <path d="M575.48,357.68c-1.55,8.15,6.04,11.67,13.05,9.32,4.53-1.52,4.1-5.83,4.88-6.05,2.25-.62,8.75-.78,8.3,2.55-1.97,14.49-28.12,15.5-33.86,3.03-2.53-5.48-2.32-19.21.5-24.67,5.92-11.49,27.97-10.97,32.43,1.72.72,2.05,2.6,14.1,0,14.1h-25.32.02ZM593.75,351.05c-.68-13.52-18.49-13.47-19.11,0h19.11Z" style="fill: #b20303;"/>
      <path d="M435.84,317.82c-15.1,0-26.64-9.27-28.06-22.54-1.47-13.85.78-23.87,6.87-30.64,3.41-3.79,9.77-8.31,20.7-8.31.81,0,1.65.02,2.5.07,9.81.56,15.61,4.94,18.74,8.52,5.32,6.06,7.61,14.63,6.81,25.48-.03.45-.1.9-.19,1.33.18.87.25,1.76.2,2.66-.81,13.57-12.4,23.42-27.57,23.42Z" style="fill: #fff;"/>
      <path d="M453.43,289.65h-26.57c-2.82,10.27,11.17,14.3,16.64,7.05.67-.87.67-2.55.92-2.78.73-.67,7.3.2,9.02-.12-1.12,18.77-33.78,18.47-35.71.42-1.62-15.25,1.38-28.87,19.56-27.82,13.45.77,17.04,11.29,16.15,23.27v-.02ZM444.29,283.84c1.7-13.75-19.24-13.37-18.27,0h18.27Z" style="fill: #b20303;"/>
      <path d="M689.43,317.83c-13,0-23.8-7.21-26.86-17.94-2.5-8.75-3.03-21.6,3-31.38,3.81-6.18,9.61-10.17,16.78-11.54,2.55-.49,5.05-.73,7.42-.73,8.49,0,15.6,3.04,20.58,8.79,5.53,6.39,7.74,15.64,6.23,26.06-.03.21-.07.42-.11.63.14.66.21,1.35.22,2.04.03,6.25-2.23,11.83-6.53,16.16-5.02,5.04-12.56,7.93-20.71,7.93Z" style="fill: #fff;"/>
      <path d="M706.68,289.65h-26.57c-1.5,9.14,8,13.64,15.24,9.02,2.73-1.75,1.9-4.78,2.67-4.92,2.45-.43,6.04.4,8.67.05.08,17.5-30.13,18.66-34.49,3.35-3.18-11.14-1.58-27.76,12.04-30.36,16.29-3.1,24.74,7.12,22.46,22.86h0ZM698.38,283.84c1.22-13.42-19.96-13.62-18.27,0h18.27Z" style="fill: #b20303;"/>
      <path d="M646.85,385.4c-14.51,0-25.98-9.36-27.9-22.77-1.71-11.87.12-21.78,5.27-28.66,4.01-5.35,9.93-8.77,17.15-9.93.2-.04.4-.08.6-.1,2-.29,3.95-.43,5.8-.43,10.51,0,16.8,4.57,20.23,8.41,6.08,6.81,8.54,17.11,7.11,29.8-1.56,13.94-13.18,23.68-28.26,23.68Z" style="fill: #fff;"/>
      <path d="M643.38,333.84c18.47-2.63,23.57,10.95,21.79,26.76-2.17,19.36-33.56,19.91-36.33.62-1.75-12.17.3-25.34,14.52-27.36l.02-.02ZM654.12,364.9c6.94-7.6,1.53-30.01-12.5-22.04-4.88,2.78-5.03,15.09-3.22,19.59,2.32,5.73,11.74,6.8,15.72,2.45Z" style="fill: #b20303;"/>
      <path d="M368.92,385.5c-8.67,0-16.55-3.02-21.64-8.29-4.13-4.28-6.21-9.71-6-15.72.08-2.29.94-4.47,2.42-6.18-1.79-3.93-2.21-8.54-1.24-13.75,2-10.75,12.6-17.96,26.39-17.96,8.93,0,16.91,3.14,21.89,8.62,3.8,4.18,5.71,9.62,5.42,15.41.02,2.16-.65,4.24-1.88,5.95,1.58,3.3,2.2,7.14,1.76,11.32-1.3,12.14-12.45,20.61-27.11,20.62h0Z" style="fill: #fff;"/>
      <path d="M386.16,347.73c-1.68-.32-8.35.52-9.05-.08-.3-.25-.25-3.35-2.13-4.92-4.08-3.38-16.19-2.1-13.6,5.28,1.92,5.48,26.47-.55,24.72,15.8-1.75,16.35-35.43,15.39-34.83-1.98,2.5.4,6.37-.57,8.59-.03.75.18,1.3,3.02,2.6,4.22,4.23,3.87,17.47,1.35,14.17-5-2.9-5.6-27.84,1.25-24.34-17.64,2.6-13.99,35.56-13.37,33.84,4.37l.03-.02Z" style="fill: #b20303;"/>
      <path d="M689.83,385.26c-8.53,0-16.27-2.94-21.22-8.06-4.1-4.23-6.16-9.66-5.96-15.7.07-2.24.89-4.37,2.3-6.06-1.36-3.18-2.07-7.31-1.44-12.64,1.35-11.34,12.23-19.26,26.45-19.26,8.55,0,16.35,2.91,21.38,7.99,4.03,4.07,6.13,9.25,6.08,14.99,0,1-.17,1.99-.47,2.94-.42,1.32-1.03,2.49-1.82,3.51.61,1.2,1.12,2.53,1.5,4,1.73,6.63.51,13.1-3.45,18.23-4.87,6.3-13.59,10.07-23.35,10.07Z" style="fill: #fff;"/>
      <path d="M698.49,347.63c-.45-.3-.63-3.57-2.15-4.92-3.77-3.37-15.84-1.55-14.24,4.22,1.88,6.82,21.84,1.08,24.84,12.57,5.08,19.46-34.94,21.67-34.31,2.33,2.4.43,6.59-.6,8.62-.05.5.13,1.13,4.43,4.62,5.48,8.99,2.72,17.6-4.75,9.65-7.99-9.02-3.68-24.02,1.02-22.09-15.3,1.73-14.52,34.13-14.05,33.98,2.45-.6,1.88-8.27,1.65-8.94,1.2h.02Z" style="fill: #b20303;"/>
      <path d="M453.88,385.27c-14.15,0-25.48-8.52-27.55-20.71-.81-4.76-.73-14.26-.28-18.34,1.31-11.77,10.73-20.73,23.46-22.3,1.8-.22,3.57-.34,5.25-.34,10.38,0,16.52,4.37,19.85,8.03,6.13,6.75,8.44,16.83,7.08,30.82-1.32,13.45-12.75,22.84-27.81,22.84Z" style="fill: #fff;"/>
      <path d="M450.72,333.84c19.24-2.38,22.54,11.84,21.01,27.62-1.78,18.21-32.71,18.12-35.54,1.42-.6-3.52-.6-11.95-.2-15.57.85-7.65,7.42-12.57,14.74-13.47h0ZM453.83,341.53c-9.79.2-10.5,9.6-9.55,17.42,1.38,11.39,17.44,11.39,19.07.75,1.18-7.69.42-18.39-9.5-18.17h-.02Z" style="fill: #b20303;"/>
      <path d="M480.82,384.3c-5.52,0-10-4.48-10-10v-39.83c0-2.92,1.28-5.7,3.5-7.6,1.82-1.56,4.13-2.4,6.5-2.4.35,0,.71.02,1.07.06.07,0,.15,0,.23,0,.84,0,1.97-.04,3.07-.08,1.31-.04,2.59-.09,3.51-.09,1.15,0,3.4,0,5.7,1.14,3.17-1.05,6.4-1.61,9.43-1.61,6.36,0,11.86,2.32,15.9,6.7,1.25,1.34,5.95,8.95,5.95,13.43v29.76c.09,1.73-.27,3.48-1.09,5.08-1.74,3.39-5.22,5.44-8.91,5.44-.19,0-.38,0-.57-.02h-8.55c-3.45,0-6.5-1.75-8.3-4.42-1.79,2.67-4.85,4.43-8.31,4.43h-9.14Z" style="fill: #fff;"/>
      <path d="M515.69,374.29h-9.14v-27.79c0-1.83-3.98-4.7-6.17-4.55-.58.03-10.44,4.38-10.44,4.97v27.39h-9.14v-39.83c1.48.23,8.82-.33,9.14,0,.37.37-.6,4.18.42,4.17,5.9-4.27,16.24-7.52,22.01-1.27.68.73,3.3,6.05,3.3,6.65v30.29l.02-.03Z" style="fill: #b20303;"/>
      <path d="M562.21,317.07c-2.77,0-5.41-1.15-7.3-3.17-1.89-2.02-2.86-4.73-2.68-7.49.02-.31,0-.96-.04-1.53-.07-1.53-.15-3.42.19-5.57.66-4.14,3.41-8.06,9.46-14.62-5.35-.19-9.63-4.59-9.63-9.99v-7.47c0-5.52,4.48-10,10-10h34.04c5.41,0,9.83,4.3,10,9.7,0,.28,0,.57,0,.84l-.43,8.29c-.12,2.25-.99,4.39-2.47,6.08l-6.57,7.47h.32c5.52,0,10,4.48,10,10v7.47c0,5.52-4.48,10-10,10h-34.88Z" style="fill: #fff;"/>
      <path d="M596.25,267.24l-.43,8.29-21.16,24.07h22.42v7.47h-34.88c.13-2.02-.27-4.2.05-6.19.68-4.32,16.62-18.89,20.31-23.69.63-.83,1.6-1.05,1.23-2.5h-21.59v-7.47h34.04v.02Z" style="fill: #b20303;"/>
      <path d="M541.25,385.23c-11.46,0-21.02-5.63-24.93-14.7-3.3-7.61-2.75-20.64-2-25.41,2-12.72,13.24-21.62,27.33-21.62,8.08,0,15.6,3.02,20.65,8.29,4.6,4.8,6.87,11.04,6.57,18.03-.07,1.62-.53,3.18-1.32,4.55.71,1.23,1.15,2.62,1.29,4.06.62,6.73-1.45,13.09-5.84,17.91-5.15,5.64-13.07,8.88-21.74,8.88Z" style="fill: #fff;"/>
      <path d="M558.87,349.4c-1.55-.27-8.67.4-9.1-.03-.37-.37.43-5.12-3.57-6.8-3.05-1.3-9.29-1.2-11.44,1.65-2.48,3.32-2.48,17.02,0,20.34,2.15,2.85,8.37,2.95,11.44,1.65,4-1.7,3.18-6.44,3.57-6.8.43-.43,7.57.23,9.1-.03,1.67,17.99-27.37,21.09-33.38,7.2-1.97-4.53-2.08-14.94-1.3-19.87,2.93-18.64,35.54-17.32,34.68,2.7Z" style="fill: #b20303;"/>
      <path d="M410.88,385.32c-4.97,0-9.9-1.16-14.27-3.35-10.78-5.39-15.34-18.46-12.81-36.8,1.74-12.75,12.82-21.66,26.94-21.66,8.1,0,15.69,3.01,20.84,8.26,4.65,4.74,7.04,10.89,6.91,17.78-.03,1.71-.5,3.35-1.33,4.8.87,1.51,1.34,3.25,1.33,5.03-.07,14.78-11.94,25.93-27.62,25.93Z" style="fill: #fff;"/>
      <path d="M428.5,349.38c-1.68-.33-8.34.52-9.04-.1-.82-.7-.28-6.1-4.87-7.15-5.43-1.23-11.12-.28-11.85,5.99-1.15,9.8-1.48,21.64,11.89,18.51,4.57-1.07,4-6.47,4.83-7.19.7-.62,7.35.23,9.04-.08-.07,14.32-16.07,19.37-27.41,13.69-8.77-4.38-8.55-18.02-7.39-26.49,2.53-18.56,35.16-16.99,34.79,2.83h0Z" style="fill: #b20303;"/>
      <path d="M490.77,317.08c-5.52,0-10-4.48-10-10v-39.83c0-2.65,1.05-5.2,2.93-7.07,1.89-1.89,4.46-2.94,7.1-2.94.37,0,.74.02,1.11.06.07,0,.15,0,.24,0,.86,0,1.99-.04,3.09-.08,1.3-.05,2.56-.09,3.48-.09,1.04,0,2.99,0,5.07.87,2.83-1.1,5.79-1.66,8.8-1.66.83,0,1.67.04,2.5.13,2.76.29,5.28,1.72,6.95,3.95,1.55,2.06,2.23,4.64,1.93,7.18,0,.6.05,1.99.08,2.85.21,5.07.36,8.73-2.95,12.07-2.32,2.35-4.76,2.82-7.59,3.36-.61.12-1.67.32-2.76.56v20.64c0,5.52-4.48,10-10,10h-9.97Z" style="fill: #fff;"/>
      <path d="M490.79,267.24c1.48.25,8.8-.33,9.14,0,.48.48-.72,4.18.4,4.98,3.6-3.72,8.34-6.37,13.7-5.8-.28,1.57.42,8.62-.05,9.09-.52.53-13.24,1.67-13.24,5.43v26.14h-9.97v-39.83l.02-.02Z" style="fill: #b20303;"/>
      <path d="M461.71,317.08c-5.52,0-10-4.48-10-10v-39.83c0-2.65,1.05-5.2,2.93-7.07,1.89-1.89,4.46-2.94,7.1-2.94.37,0,.74.02,1.11.06.07,0,.15,0,.24,0,.86,0,1.99-.04,3.09-.08,1.3-.05,2.56-.09,3.48-.09,1.07,0,3.14,0,5.3.97,2.98-1.03,6.24-1.59,9.77-1.68.08,0,.17,0,.25,0,2.61,0,5.11,1.02,6.98,2.84,1.93,1.88,3.02,4.46,3.02,7.16v9.14c0,3.53-1.86,6.79-4.89,8.6-1.57.93-3.34,1.4-5.11,1.4-.56,0-1.12-.05-1.68-.14-.68.2-1.59.56-2.44.96v20.71c0,5.52-4.48,10-10,10h-9.14Z" style="fill: #fff;"/>
      <path d="M461.73,267.24c1.48.25,8.8-.33,9.14,0,.48.48-.72,4.18.4,4.98,3.62-4.08,8.34-5.67,13.7-5.8v9.14c-2.85-1.55-14.12,3.88-14.12,6.22v25.31h-9.14v-39.83l.02-.02Z" style="fill: #b20303;"/>
      <rect x="601.19" y="307.85" width="28.3" height="76.43" rx="10" ry="10" style="fill: #fff;"/>
      <rect x="611.19" y="317.85" width="8.3" height="56.43" style="fill: #b20303;"/>
    </g>
  </g>
  <g id="Camada_1-2-2" data-name="Camada 1-2">
    <g>
      <g>
        <g>
          <path d="M706.68,126.17h-32.39c-.88-12.65-4-23.06-16.99-27.41-14.85-5-36.16-2.23-42,14.52-3.65,10.49-3.65,43.45-1.25,54.42,4.17,18.97,21.37,23.96,38.83,20.49,15.42-3.07,20.41-13.19,21.41-27.99h32.39c-.73,9.12-1.27,17.72-4.83,26.29-17.62,42.26-96.88,42.21-115.98,1.08-7.92-17.07-7.99-70.45-.58-87.67,19.04-44.26,102.25-43.43,117.87,2.83,2.65,7.84,2.75,15.3,3.52,23.46l.02-.02Z" style="fill: #293438;"/>
          <g>
            <path d="M551.4,153.56h-96.33v14.52c0,5.27,7.2,14.5,11.7,17.35,15.37,9.74,53.23,7.54,52.25-16.94h32.39c.57,23.69-15.54,39.88-37.38,46.05-31.56,8.94-75.49,2.12-87.82-32.54-5.3-14.87-4.8-54.25-1.45-69.94,12.17-56.77,105.96-60.27,123.7-5.77.75,2.3,2.93,10.1,2.93,12v35.26ZM519.84,131.15c2.12-24.36-12.27-37.31-36.16-35.73-20.01,1.33-30.58,16.3-28.61,35.73h64.77Z" style="fill: #293438;"/>
            <path d="M363.73,30.74v38.99h40.69v28.21h-39.44c-.08,0-1.25,1.15-1.25,1.25v66.39c0,.95,1.05,6.4,1.4,7.74,1.4,5.43,5.53,9.82,10.84,11.59,1.55.52,6.89,1.85,8.12,1.85h21.17v29.04c-24.32.5-54.9.8-68.75-22.99-2.83-4.87-6.8-15.95-6.8-21.41v-73.44h-22.42v-28.21h22.42V30.74h34.04-.02Z" style="fill: #293438;"/>
          </g>
        </g>
        <g>
          <path d="M143.69,10v32.36H47.36v55.6h88.02v32.36H47.36v85.47H11.25c-.08,0-1.25-1.15-1.25-1.25V10h133.69Z" style="fill: #293438;"/>
          <path d="M289.01,215.79h-31.98c-.08,0-1.25-1.15-1.25-1.25v-15.35c-12.75,6.15-24.74,14.44-38.98,17.05-33.46,6.17-60.47-10.3-57.37-46.55,1.72-20.11,17.82-32.78,36.56-36.49,19.66-3.88,40.64-1.3,60.63-2.07v-12.87c0-9.04-8.32-18.67-16.79-21.39-17.74-5.7-46.3-.13-44.66,23.47h-32.39c-5.33-55.33,78.91-67.4,110.88-38.19,6.89,6.29,15.34,21.84,15.34,31.14v102.5ZM255.79,155.22h-44.43c-3.27,0-10.52,2.92-13.15,5.1-8.8,7.3-7.6,24.81,3.83,29.09,17.42,6.55,38.54-10.05,53.75-16.79v-17.42.02Z" style="fill: #293438;"/>
        </g>
      </g>
      <path d="M269.07,317.85l12.87,43.16,13.27-42.35c1.48-1.8,8.64-.38,11.22-.82l-18.77,56.47c-2.73-.57-10.85.97-12.37-.87l-17.84-55.62h11.62v.02Z" style="fill: #b20303;"/>
      <path d="M662.67,250.65v56.43c-1.48-.23-8.82.33-9.14,0-.25-.25.18-3.23,0-4.15-9,6.39-24.94,7.04-27.19-6.42-.9-5.37-.77-18.17,1.57-22.94,4.95-10.1,18.02-7.95,25.64-2.18v-20.74h9.14-.02ZM653.36,294.46c.5-.85.4-13.7-.25-14.77-2.58-4.28-16.69-8.6-17.89.37-.63,4.75-1.25,17.5,4.17,19.19,2.83.88,12.84-2.83,13.97-4.78Z" style="fill: #b20303;"/>
      <polygon points="412.73 250.65 412.73 258.94 386.16 258.94 386.16 274.71 410.25 274.71 410.25 283.01 386.16 283.01 386.16 307.07 376.19 307.07 376.19 250.65 412.73 250.65" style="fill: #b20303;"/>
      <path d="M343.81,374.29c-1.48-.23-8.82.33-9.14,0-.25-.25.18-3.23,0-4.15-7.22,2.72-12.64,7.15-20.76,3.73-8.12-3.42-8.24-16.34-.58-20.51,1.2-.65,5.8-2.32,6.82-2.32h14.54c.62-7.52-4.45-11.3-11.69-9.6-5.67,1.33-4.97,6.42-5.87,7-1.07.7-6.4-.27-8.2.12-2.72-16.45,25.34-19.81,32.24-8.57.83,1.35,2.63,6.07,2.63,7.34v26.97-.02ZM334.67,357.68h-13.7c-3.78,0-7.72,9.7.82,10.04,4.22.17,15.37-4.27,12.89-10.04Z" style="fill: #b20303;"/>
      <path d="M554.72,307.07c-1.48-.23-8.82.33-9.14,0-.25-.25.18-3.23,0-4.15-6.6,2.6-12.59,6.29-19.92,3.72-8.42-2.95-9.3-15.62-2.08-20.32.68-.45,5.5-2.48,5.82-2.48h16.19c1.22-7.94-6.02-12.15-13.07-9.32-3.23,1.3-3.47,5.4-4.88,5.9-1.95.68-5.55-.23-7.79.12-1.73-15.79,23.96-18.52,31.56-8.72,1,1.28,3.33,6.19,3.33,7.47v27.79h-.02ZM545.58,290.48h-14.54c-3.45,0-5.95,9.99,1.65,9.99,1.72,0,12.27-4.37,12.74-5.13.6-.97-.1-3.52.13-4.85h.02Z" style="fill: #b20303;"/>
      <path d="M575.48,357.68c-1.55,8.15,6.04,11.67,13.05,9.32,4.53-1.52,4.1-5.83,4.88-6.05,2.25-.62,8.75-.78,8.3,2.55-1.97,14.49-28.12,15.5-33.86,3.03-2.53-5.48-2.32-19.21.5-24.67,5.92-11.49,27.97-10.97,32.43,1.72.72,2.05,2.6,14.1,0,14.1h-25.32.02ZM593.75,351.05c-.68-13.52-18.49-13.47-19.11,0h19.11Z" style="fill: #b20303;"/>
      <path d="M453.43,289.65h-26.57c-2.82,10.27,11.17,14.3,16.64,7.05.67-.87.67-2.55.92-2.78.73-.67,7.3.2,9.02-.12-1.12,18.77-33.78,18.47-35.71.42-1.62-15.25,1.38-28.87,19.56-27.82,13.45.77,17.04,11.29,16.15,23.27v-.02ZM444.29,283.84c1.7-13.75-19.24-13.37-18.27,0h18.27Z" style="fill: #b20303;"/>
      <path d="M706.68,289.65h-26.57c-1.5,9.14,8,13.64,15.24,9.02,2.73-1.75,1.9-4.78,2.67-4.92,2.45-.43,6.04.4,8.67.05.08,17.5-30.13,18.66-34.49,3.35-3.18-11.14-1.58-27.76,12.04-30.36,16.29-3.1,24.74,7.12,22.46,22.86h0ZM698.38,283.84c1.22-13.42-19.96-13.62-18.27,0h18.27Z" style="fill: #b20303;"/>
      <path d="M643.38,333.84c18.47-2.63,23.57,10.95,21.79,26.76-2.17,19.36-33.56,19.91-36.33.62-1.75-12.17.3-25.34,14.52-27.36l.02-.02ZM654.12,364.9c6.94-7.6,1.53-30.01-12.5-22.04-4.88,2.78-5.03,15.09-3.22,19.59,2.32,5.73,11.74,6.8,15.72,2.45Z" style="fill: #b20303;"/>
      <path d="M386.16,347.73c-1.68-.32-8.35.52-9.05-.08-.3-.25-.25-3.35-2.13-4.92-4.08-3.38-16.19-2.1-13.6,5.28,1.92,5.48,26.47-.55,24.72,15.8-1.75,16.35-35.43,15.39-34.83-1.98,2.5.4,6.37-.57,8.59-.03.75.18,1.3,3.02,2.6,4.22,4.23,3.87,17.47,1.35,14.17-5-2.9-5.6-27.84,1.25-24.34-17.64,2.6-13.99,35.56-13.37,33.84,4.37l.03-.02Z" style="fill: #b20303;"/>
      <path d="M698.49,347.63c-.45-.3-.63-3.57-2.15-4.92-3.77-3.37-15.84-1.55-14.24,4.22,1.88,6.82,21.84,1.08,24.84,12.57,5.08,19.46-34.94,21.67-34.31,2.33,2.4.43,6.59-.6,8.62-.05.5.13,1.13,4.43,4.62,5.48,8.99,2.72,17.6-4.75,9.65-7.99-9.02-3.68-24.02,1.02-22.09-15.3,1.73-14.52,34.13-14.05,33.98,2.45-.6,1.88-8.27,1.65-8.94,1.2h.02Z" style="fill: #b20303;"/>
      <path d="M450.72,333.84c19.24-2.38,22.54,11.84,21.01,27.62-1.78,18.21-32.71,18.12-35.54,1.42-.6-3.52-.6-11.95-.2-15.57.85-7.65,7.42-12.57,14.74-13.47h0ZM453.83,341.53c-9.79.2-10.5,9.6-9.55,17.42,1.38,11.39,17.44,11.39,19.07.75,1.18-7.69.42-18.39-9.5-18.17h-.02Z" style="fill: #b20303;"/>
      <path d="M515.69,374.29h-9.14v-27.79c0-1.83-3.98-4.7-6.17-4.55-.58.03-10.44,4.38-10.44,4.97v27.39h-9.14v-39.83c1.48.23,8.82-.33,9.14,0,.37.37-.6,4.18.42,4.17,5.9-4.27,16.24-7.52,22.01-1.27.68.73,3.3,6.05,3.3,6.65v30.29l.02-.03Z" style="fill: #b20303;"/>
      <path d="M596.25,267.24l-.43,8.29-21.16,24.07h22.42v7.47h-34.88c.13-2.02-.27-4.2.05-6.19.68-4.32,16.62-18.89,20.31-23.69.63-.83,1.6-1.05,1.23-2.5h-21.59v-7.47h34.04v.02Z" style="fill: #b20303;"/>
      <path d="M558.87,349.4c-1.55-.27-8.67.4-9.1-.03-.37-.37.43-5.12-3.57-6.8-3.05-1.3-9.29-1.2-11.44,1.65-2.48,3.32-2.48,17.02,0,20.34,2.15,2.85,8.37,2.95,11.44,1.65,4-1.7,3.18-6.44,3.57-6.8.43-.43,7.57.23,9.1-.03,1.67,17.99-27.37,21.09-33.38,7.2-1.97-4.53-2.08-14.94-1.3-19.87,2.93-18.64,35.54-17.32,34.68,2.7Z" style="fill: #b20303;"/>
      <path d="M428.5,349.38c-1.68-.33-8.34.52-9.04-.1-.82-.7-.28-6.1-4.87-7.15-5.43-1.23-11.12-.28-11.85,5.99-1.15,9.8-1.48,21.64,11.89,18.51,4.57-1.07,4-6.47,4.83-7.19.7-.62,7.35.23,9.04-.08-.07,14.32-16.07,19.37-27.41,13.69-8.77-4.38-8.55-18.02-7.39-26.49,2.53-18.56,35.16-16.99,34.79,2.83h0Z" style="fill: #b20303;"/>
      <path d="M490.79,267.24c1.48.25,8.8-.33,9.14,0,.48.48-.72,4.18.4,4.98,3.6-3.72,8.34-6.37,13.7-5.8-.28,1.57.42,8.62-.05,9.09-.52.53-13.24,1.67-13.24,5.43v26.14h-9.97v-39.83l.02-.02Z" style="fill: #b20303;"/>
      <path d="M461.73,267.24c1.48.25,8.8-.33,9.14,0,.48.48-.72,4.18.4,4.98,3.62-4.08,8.34-5.67,13.7-5.8v9.14c-2.85-1.55-14.12,3.88-14.12,6.22v25.31h-9.14v-39.83l.02-.02Z" style="fill: #b20303;"/>
      <rect x="611.19" y="317.85" width="8.3" height="56.43" style="fill: #b20303;"/>
    </g>
  </g>
</svg>